<svg xmlns="http://www.w3.org/2000/svg" xmlns:xlink="http://www.w3.org/1999/xlink" viewBox="0 0 93 94"><defs><style>.a{clip-path:url(#b);}.b,.c{fill:none;stroke-linecap:round;stroke-linejoin:round;stroke-miterlimit:10;stroke-width:3px;}.b{stroke:#ffffff;}.c{stroke:#ffffff;}.d{fill:none;}</style><clipPath id="b"><rect width="93" height="94"/></clipPath></defs><g id="a" class="a"><rect class="d" width="93" height="94"/><g transform="translate(-557 -1451)"><path class="b" d="M44.319,83.342A39.071,39.071,0,1,1,83.438,44.271" transform="translate(553.801 1447.8)"/><path class="c" d="M112.279,87.882,69.1,70.4l17.5,43.126,8.868-8.857,15.055,15.036,7.941-7.931L103.412,96.738Z" transform="translate(529.832 1423.294)"/><g transform="translate(578.248 1471.973)"><g transform="translate(0 20.721)"><line class="b" x1="7.624"/></g><g transform="translate(6.062 6.179)"><path class="b" d="M89.749,45.5,84.5,50.743" transform="translate(-60.254 -45.5)"/><path class="b" d="M50.949,84.4,45.7,89.643" transform="translate(-45.7 -60.121)"/></g><g transform="translate(20.684)"><line class="b" y2="7.614"/></g><g transform="translate(6.124 6.179)"><path class="b" d="M45.8,45.5l5.249,5.243" transform="translate(-45.8 -45.5)"/></g></g></g></g></svg>