<svg xmlns="http://www.w3.org/2000/svg" xmlns:xlink="http://www.w3.org/1999/xlink" viewBox="0 0 57 94"><defs><style>.a{clip-path:url(#b);}.b,.c{fill:none;stroke-linecap:round;stroke-linejoin:round;stroke-miterlimit:10;stroke-width:3px;}.b{stroke:#ffffff;}.c{stroke:#ffffff;}.d{fill:none;}</style><clipPath id="b"><rect width="57" height="94"/></clipPath></defs><g id="a" class="a"><rect class="d" width="57" height="94"/><g transform="translate(-131 -1451)"><path class="b" d="M42.556,66.229V65.8c0-6.66,2.837-10.994,7.527-15.684a26.268,26.268,0,1,0-36.963.276c4.65,4.532,7.093,8.866,7.093,15.369v.433" transform="translate(127.803 1447.689)"/><line class="b" y1="20.61" transform="translate(159.364 1491.26)"/><path class="b" d="M67.3,92.5s-2.6,3.783-6.66,3.783S53.9,92.5,53.9,92.5" transform="translate(98.292 1394.858)"/><path class="c" d="M66.7,213.1c0,4.492-4.414,8.118-9.852,8.118S47,217.592,47,213.1" transform="translate(102.473 1321.782)"/><path class="c" d="M63.6,165.81A3.179,3.179,0,0,1,60.412,169H35.192A3.179,3.179,0,0,1,32,165.81v-.118a3.179,3.179,0,0,1,3.192-3.192h25.22a3.179,3.179,0,0,1,3.192,3.192Z" transform="translate(111.562 1352.443)"/><path class="c" d="M63.6,181.51a3.179,3.179,0,0,1-3.192,3.192H35.192A3.179,3.179,0,0,1,32,181.51v-.118a3.179,3.179,0,0,1,3.192-3.192h25.22a3.179,3.179,0,0,1,3.192,3.192Z" transform="translate(111.562 1342.93)"/><path class="c" d="M63.6,198.11a3.179,3.179,0,0,1-3.192,3.192H35.192A3.179,3.179,0,0,1,32,198.11v-.118a3.179,3.179,0,0,1,3.192-3.192h25.22a3.179,3.179,0,0,1,3.192,3.192Z" transform="translate(111.562 1332.871)"/></g></g></svg>