<svg id="Layer_1" data-name="Layer 1" xmlns="http://www.w3.org/2000/svg" viewBox="0 0 1200 1200"><defs><style>.cls-1{fill:#fff;}</style></defs><title>measure</title><path class="cls-1" d="M1110.67,1084.57H108.7V86a25,25,0,0,0-50,0V1109.57a25,25,0,0,0,25,25h1027a25,25,0,0,0,0-50Z"/><path class="cls-1" d="M219.79,999.44c.41,0,.81,0,1.22,0,1.47-.07,36.56-1.89,92.06-15.68,91.71-22.8,167.79-60.52,215.48-88.14,96.88-56.13,183.85-131.08,258.51-222.78C872.89,567.4,942.51,439.5,994.32,292.22l25.33,49.42a25,25,0,1,0,44.49-22.8l-53-103.46a25,25,0,0,0-33.65-10.85L873.67,257.72a25,25,0,1,0,22.8,44.5l50.42-25.83C897.27,417.19,831,539.29,749.51,639.75,679,726.64,597.06,797.7,505.87,850.93c-81.22,47.42-154.94,71.68-202.49,83.68-51.44,13-84.21,14.83-84.8,14.86a25,25,0,0,0,1.21,50Z"/></svg>