<svg xmlns="http://www.w3.org/2000/svg" xmlns:xlink="http://www.w3.org/1999/xlink" viewBox="0 0 95 94"><defs><style>.a{clip-path:url(#b);}.b,.c,.d{fill:none;stroke-linecap:round;stroke-width:3px;}.b{stroke:#ffffff;}.b,.d{stroke-linejoin:round;stroke-miterlimit:10;}.c,.d{stroke:#ffffff;}.e{fill:none;}</style><clipPath id="b"><rect width="95" height="94"/></clipPath></defs><g id="a" class="a"><rect class="e" width="95" height="94"/><g transform="translate(-987 -1451)"><path class="b" d="M95.992,56.134V44.708L85.708,42.285a35.188,35.188,0,0,0-4.594-10.659l5.569-9-8.13-8.075-9.228,5.572A36.829,36.829,0,0,0,58.756,15.8L56.236,5.3h-11.5l-2.52,10.5a35.719,35.719,0,0,0-10.569,4.32L22.5,14.506l-8.13,8.075,5.569,9a34.93,34.93,0,0,0-4.472,10.659L5.3,44.667V56.094l10,2.382A35.8,35.8,0,0,0,19.772,69.54L14.406,78.18l8.13,8.075,8.618-5.249A35.514,35.514,0,0,0,42.5,85.65l2.317,9.65h11.5l2.317-9.65a36.376,36.376,0,0,0,11.342-4.684l8.618,5.289,8.13-8.075L81.358,69.54a36.371,36.371,0,0,0,4.553-11.063Z" transform="translate(983.699 1447.7)"/><path class="c" d="M24.428,0A24.712,24.712,0,0,1,49.022,24.594,24.311,24.311,0,0,1,24.594,49.022,24.712,24.712,0,0,1,0,24.428,24.311,24.311,0,0,1,24.428,0Z" transform="translate(999.536 1499.677) rotate(-45)"/><ellipse class="d" cx="8.781" cy="8.721" rx="8.781" ry="8.721" transform="translate(1025.422 1490.954)"/></g></g></svg>